<svg id="Шар_1" data-name="Шар 1" xmlns="http://www.w3.org/2000/svg" viewBox="0 0 276.59521 414.12245">
  <defs>
    <style>
      .cls-1 {
        fill: #dbf3d9;
      }

      .cls-2 {
        fill: #6b8c33;
      }

      .cls-3 {
        opacity: 0.98;
      }

      .cls-4 {
        fill: #fff;
        stroke: #fff3d9;
        stroke-miterlimit: 10;
        stroke-width: 3px;
      }
    </style>
  </defs>
  <g>
    <path class="cls-1" d="M118.00017,302.02866c.045-14.54895,8.22366-24.28269,19.29146-38.5829,25.74421-33.26287,56.364-77.33419,96.45727-135.04018,16.49734-23.74459,23.70574-35.74818,38.5829-38.58291,7.73825-1.47447,11.55969.67351,57.87436,19.29146,26.11924,10.49968,31.60825,12.51165,38.58291,19.29145,13.441,13.06536,17.21324,29.42347,19.29146,38.58291,3.86117,17.01837,1.02262,25.59026,0,57.87436-1.02032,37.96645,1.72736,60.91188-2.23984,89.95458-4.38719,20.0405-11.49343,32.87919-17.05162,45.0856-4.51826,6.33581-26.61435,92.75542-38.584,96.45618-60.64688,30.685-131.91726-52.46455-173.62238-96.45381C122.17279,322.217,117.96779,312.51745,118.00017,302.02866Z" transform="translate(-117.99999 -48.87755)"/>
    <path class="cls-2" d="M233.7489,128.40558c-6.73005-12.27822,68.39493-94.37994,115.74872-77.16581,56.30981,20.47009,47.395,171.94138,38.58291,173.62308-2.97515,6.99283-34.693-83.87909-38.58224-77.16633-6.53467.64782-2.61492,29.35245-19.29213,38.58342-6.338,3.50824-15.40349,4.06664-19.29145,0-3.08994-3.23182-1.72026-8.14035,0-19.29145,3.45083-22.36844,5.10428-33.85925,0-38.58291-4.07017-3.76639-10.78933-1.70613-19.29145,0C270.7649,132.59115,237.36722,135.0067,233.7489,128.40558Z" transform="translate(-117.99999 -48.87755)"/>
  </g>
  <g class="cls-3">
    <g>
      <path class="cls-4" d="M174.01221,256.1416a14.19184,14.19184,0,0,1-5.92676,11.90332,21.02745,21.02745,0,0,1-13.09863,4.084,18.69284,18.69284,0,0,1-3.38672-.14942q-.84741-.39917-.84668-2.44043a29.19767,29.19767,0,0,0-.27393-3.28711,28.85894,28.85894,0,0,1-.27392-3.2373q0-.64673.89648-.84668a5.595,5.595,0,0,1,1.84277,0q1.54322.14941,1.49414.14941,9.4131,0,9.41309-5.77734,0-2.73852-4.13379-5.03027a77.25317,77.25317,0,0,1-7.71972-4.53223,11.6005,11.6005,0,0,1-4.13379-9.26367,13.696,13.696,0,0,1,5.62793-11.6543q5.08006-3.73534,12.84961-3.73535a1.07344,1.07344,0,0,1,1.021.64746,33.82323,33.82323,0,0,1,1.24512,4.03418,25.43351,25.43351,0,0,1,.92139,4.084q0,.54859-.94629.69727-3.18823.44824-6.42481.84668-3.8357,1.04589-3.835,4.18359,0,2.24121,4.03418,4.53223a46.89628,46.89628,0,0,1,7.57031,4.831A13.14343,13.14343,0,0,1,174.01221,256.1416Z" transform="translate(-117.99999 -48.87755)"/>
      <path class="cls-4" d="M197.15039,202.40234l-.04883.64746q-1.09571,18.52735-1.0957,31.8252,0,5.92749.19922,17.75537.19629,11.82934.19922,17.70557c0,.76416-.26758,1.14551-.79688,1.14551h-9.51367q-.89649,0-.89648-1.14551,0-5.87622.09961-17.70557.0996-11.82788.0996-17.75537,0-5.37891-.52246-16.16162-.52295-10.782-.523-16.11182,0-.99535,1.04541-.99609.89649,0,2.68946.14941t2.68945.14942q.94629,0,2.78906-.14942t2.74024-.14941Q197.20117,201.60547,197.15039,202.40234Z" transform="translate(-117.99999 -48.87755)"/>
      <path class="cls-4" d="M223.32813,211.915q0,6.126-6.82325,6.126-6.92285,0-6.92285-6.126a5.66088,5.66088,0,0,1,2.1416-4.53223,7.54569,7.54569,0,0,1,9.58692.04981A5.65286,5.65286,0,0,1,223.32813,211.915Zm-.34864,13.49707q0,3.8357-.47363,11.57959-.47315,7.74535-.47266,11.62939,0,3.63648.14942,10.88233.14942,7.24658.14941,10.83252,0,1.04589-.89648,1.0459h-9.71192q-1.04589,0-1.0459-2.042,0-3.43651.17383-10.33447.17431-6.89721.17481-10.38428,0-3.88476-.57324-11.65429-.57276-7.76953-.57227-11.6543,0-.84594,1.0459-.84668a23.3301,23.3301,0,0,1,2.76465.249,16.01746,16.01746,0,0,0,5.627,0,23.40351,23.40351,0,0,1,2.81445-.249Q222.9795,224.46582,222.97949,225.41211Z" transform="translate(-117.99999 -48.87755)"/>
      <path class="cls-4" d="M284.06836,202.00391q0,6.4248-.57324,19.24951-.57276,12.82543-.57227,19.19971,0,19.67358.84668,29.7832l.04981.64746q.04833.49878-1.34473.64746a17.91213,17.91213,0,0,1-2.68945,0q-2.0918-.14941-1.94239-.14941-.74706,0-2.1914.14941-1.44581.14941-2.19141.14941-.69873,0-.82226-3.46142-.12451-3.4607-.373-3.51123a2.89472,2.89472,0,0,0-.74707.64746q-6.82472,7.37182-15.68848,7.37109a20.67572,20.67572,0,0,1-16.53515-7.66992,26.04625,26.04625,0,0,1-6.126-17.43164q0-10.60841,6.17578-17.83008a21.15847,21.15847,0,0,1,16.88379-7.57031,17.199,17.199,0,0,1,10.957,3.68555q2.14014,1.8435,4.2334,3.73535a.65676.65676,0,0,0,.39844-.69727V212.81152q0-1.64355-.14942-4.98047-.14941-3.33618-.14941-5.03027,0-1.19531.79687-1.19531,1.84131,0,5.47852-.32373,3.63427-.323,5.42871-.32373Q284.06836,200.958,284.06836,202.00391Zm-12.45117,45.32226a16.17,16.17,0,0,0-3.68555-10.50879,12.11778,12.11778,0,0,0-9.76172-4.83105,12.59444,12.59444,0,0,0-10.11035,4.78125,16.126,16.126,0,0,0-3.78516,10.75781,15.17744,15.17744,0,0,0,3.93457,10.40918,12.63849,12.63849,0,0,0,9.96094,4.68164,12.21264,12.21264,0,0,0,9.86133-4.73144A16.265,16.265,0,0,0,271.61719,247.32617Z" transform="translate(-117.99999 -48.87755)"/>
      <path class="cls-4" d="M338.48438,244.73633a4.80514,4.80514,0,0,1-3.1875,4.93066q-2.14161.79761-30.82911,2.93848a11.20779,11.20779,0,0,0,4.83106,7.4707,14.15233,14.15233,0,0,0,8.5664,2.93848,23.09331,23.09331,0,0,0,14.44336-5.08008q.79542-.64673,1.59375-1.29492a.92071.92071,0,0,1,.52246.09961q.12451.10034,1.86817,3.46142a29.885,29.885,0,0,1,1.74316,3.61084q0,.29883-.79687,1.14551-7.32129,7.76954-18.77637,7.76953-11.55468,0-18.42773-6.89795-6.873-6.89721-6.87305-18.40283a26.51,26.51,0,0,1,6.57422-17.87988,21.70631,21.70631,0,0,1,16.9834-7.91895A20.30627,20.30627,0,0,1,332.3584,228.5,23.14254,23.14254,0,0,1,338.48438,244.73633Zm-11.85352-3.03809a9.96142,9.96142,0,0,0-3.2627-7.32129,10.26152,10.26152,0,0,0-7.3457-3.1875,11.03111,11.03111,0,0,0-8.14258,3.68555,11.617,11.617,0,0,0-3.56152,8.26758q0,1.04589,1.793,1.0459a125.02244,125.02244,0,0,0,17.63086-1.49414Q326.62939,242.29663,326.63086,241.69824Z" transform="translate(-117.99999 -48.87755)"/>
      <path class="cls-4" d="M245.20605,305.30859a23.10246,23.10246,0,0,1-1.1455,4.88086q-1.147,3.78516-1.59375,3.78516-2.24121-.99609-4.50684-1.99219a12.18461,12.18461,0,0,0-4.95605-.99609,13.17458,13.17458,0,0,0-10.21,4.53222,15.4715,15.4715,0,0,0-4.084,10.708,14.98671,14.98671,0,0,0,4.084,10.50879,13.30182,13.30182,0,0,0,10.21,4.582,14.38678,14.38678,0,0,0,6.57422-1.64355q3.2373-1.64355,2.83886-1.64356.646,0,1.44434,4.1836a32.42884,32.42884,0,0,1,.74707,5.22949q0,1.544-5.82715,3.03809a32.77324,32.77324,0,0,1-7.22168,1.24511,22.665,22.665,0,0,1-17.332-7.66992,26.76539,26.76539,0,0,1-.14941-35.75976A22.65688,22.65688,0,0,1,231.46,300.72656a23.96213,23.96213,0,0,1,12.75,3.53614Q245.20605,304.86035,245.20605,305.30859Z" transform="translate(-117.99999 -48.87755)"/>
      <path class="cls-4" d="M283.28613,303.71484a60.84786,60.84786,0,0,1-.74707,9.96094q-.14941,1.14551-.99609,1.14551-1.04591,0-3.16309-.22363-2.11669-.22559-3.21191-.22461-6.27539,0-8.01856,3.53613-1.04589,2.14307-1.04589,8.915v5.47851q0,2.78907.22363,8.4668.22558,5.67774.22461,8.4668,0,1.34472-1.14551,1.34472-1.54395,0-4.68164-.0498t-4.68164-.0498q-1.147,0-1.14551-1.24512,0-4.03418.125-12.15235.123-8.11815.124-12.20214,0-12.3003-2.291-19.77246a2.66616,2.66616,0,0,1-.09961-.59766.872.872,0,0,1,.64746-.84668q1.84131-.19776,5.17969-.59766,5.37891-.99462,4.98047-.99609.7954,0,1.0459,2.93848.249,2.93847.89648,2.93847a.47551.47551,0,0,0,.249-.09961q2.042-1.29345,4.084-2.58984a18.47758,18.47758,0,0,1,4.582-1.99219,17.29235,17.29235,0,0,1,4.98047-.59765Q283.28613,302.669,283.28613,303.71484Z" transform="translate(-117.99999 -48.87755)"/>
      <path class="cls-4" d="M334.31543,323.73633a4.80514,4.80514,0,0,1-3.1875,4.93066q-2.14159.79835-30.8291,2.93848a11.20991,11.20991,0,0,0,4.83105,7.4707,14.15543,14.15543,0,0,0,8.56641,2.93848,23.09333,23.09333,0,0,0,14.44336-5.08008q.7954-.646,1.59375-1.29492a.925.925,0,0,1,.52246.09961q.12451.10107,1.86816,3.46191a29.86275,29.86275,0,0,1,1.74317,3.61035q0,.29883-.79688,1.14551-7.32129,7.76954-18.77636,7.76953-11.55469,0-18.42774-6.89843-6.873-6.89649-6.87305-18.40235a26.5091,26.5091,0,0,1,6.57422-17.87988,21.70631,21.70631,0,0,1,16.9834-7.91895,20.30624,20.30624,0,0,1,15.63867,6.873A23.14166,23.14166,0,0,1,334.31543,323.73633Zm-11.85352-3.03809a9.96145,9.96145,0,0,0-3.26269-7.32129,10.25957,10.25957,0,0,0-7.3457-3.1875,11.02928,11.02928,0,0,0-8.14258,3.68555,11.61531,11.61531,0,0,0-3.56153,8.26758q0,1.04589,1.793,1.0459a125.02233,125.02233,0,0,0,17.63086-1.49414Q322.46045,321.29737,322.46191,320.69824Z" transform="translate(-117.99999 -48.87755)"/>
      <path class="cls-4" d="M393.06348,305.4082a5.80723,5.80723,0,0,1-.14942.89649,119.63883,119.63883,0,0,0-1.94238,19.67285q0,.49951,1.24512,22.3623l.0498.69727q.04835,1.44434-1.32031,1.44434a38.98927,38.98927,0,0,0-4.13281.32324,39.06758,39.06758,0,0,1-4.10938.32422q-.94629,0-1.44433-3.48633t-.94629-3.48633a12.92235,12.92235,0,0,0-2.68946,1.94238,29.41064,29.41064,0,0,1-5.47851,3.63575,17.28885,17.28885,0,0,1-7.86914,1.99218,20.64712,20.64712,0,0,1-16.28614-7.71972,25.69337,25.69337,0,0,1-6.27539-17.18262q0-11.05664,6.3252-18.27832,6.62256-7.519,17.43164-7.52051a18.90334,18.90334,0,0,1,13.29785,5.2793q.84668.99609,2.63965,2.88867a.43047.43047,0,0,0,.29883.14941q.29883,0,.84668-3.13769t1.39453-3.1377a30.9389,30.9389,0,0,1,5.03027.74707Q393.062,304.71094,393.06348,305.4082Zm-12.7002,20.81836a15.93564,15.93564,0,0,0-3.63574-10.50879,12.07914,12.07914,0,0,0-9.81152-4.73144,12.5475,12.5475,0,0,0-9.96094,4.68164,15.72134,15.72134,0,0,0-3.835,10.55859,15.46733,15.46733,0,0,0,3.835,10.459,12.60124,12.60124,0,0,0,9.96094,4.63183,12.20781,12.20781,0,0,0,9.76171-4.73144A15.71032,15.71032,0,0,0,380.36328,326.22656Z" transform="translate(-117.99999 -48.87755)"/>
    </g>
  </g>
</svg>
